<mxfile host="app.diagrams.net" agent="Mozilla/5.0 (Macintosh; Intel Mac OS X 10_15_7) AppleWebKit/537.36 (KHTML, like Gecko) Chrome/134.0.0.0 Safari/537.36" version="26.1.0">
  <diagram name="第 1 页" id="fXM0uCMqJM0664jHBCFd">
    <mxGraphModel dx="1026" dy="684" grid="1" gridSize="10" guides="1" tooltips="1" connect="1" arrows="1" fold="1" page="1" pageScale="1" pageWidth="827" pageHeight="1169" math="0" shadow="0">
      <root>
        <mxCell id="0" />
        <mxCell id="1" parent="0" />
        <mxCell id="aiFn7cLQpYImXhf1txMJ-1" value="&quot;REDIS&quot;" style="rounded=0;whiteSpace=wrap;html=1;" vertex="1" parent="1">
          <mxGeometry x="210" y="230" width="70" height="40" as="geometry" />
        </mxCell>
        <mxCell id="aiFn7cLQpYImXhf1txMJ-2" value="db_version" style="rounded=0;whiteSpace=wrap;html=1;" vertex="1" parent="1">
          <mxGeometry x="280" y="230" width="70" height="40" as="geometry" />
        </mxCell>
        <mxCell id="aiFn7cLQpYImXhf1txMJ-3" value="SELECTDB" style="rounded=0;whiteSpace=wrap;html=1;" vertex="1" parent="1">
          <mxGeometry x="350" y="230" width="70" height="40" as="geometry" />
        </mxCell>
        <mxCell id="aiFn7cLQpYImXhf1txMJ-4" value="db_number" style="rounded=0;whiteSpace=wrap;html=1;" vertex="1" parent="1">
          <mxGeometry x="420" y="230" width="70" height="40" as="geometry" />
        </mxCell>
        <mxCell id="aiFn7cLQpYImXhf1txMJ-5" value="key_value_pairs" style="rounded=0;whiteSpace=wrap;html=1;" vertex="1" parent="1">
          <mxGeometry x="490" y="230" width="90" height="40" as="geometry" />
        </mxCell>
        <mxCell id="aiFn7cLQpYImXhf1txMJ-6" value="SELECTDB" style="rounded=0;whiteSpace=wrap;html=1;" vertex="1" parent="1">
          <mxGeometry x="580" y="230" width="70" height="40" as="geometry" />
        </mxCell>
        <mxCell id="aiFn7cLQpYImXhf1txMJ-7" value="db_number" style="rounded=0;whiteSpace=wrap;html=1;" vertex="1" parent="1">
          <mxGeometry x="650" y="230" width="70" height="40" as="geometry" />
        </mxCell>
        <mxCell id="aiFn7cLQpYImXhf1txMJ-8" value="key_value_pairs" style="rounded=0;whiteSpace=wrap;html=1;" vertex="1" parent="1">
          <mxGeometry x="720" y="230" width="90" height="40" as="geometry" />
        </mxCell>
        <mxCell id="aiFn7cLQpYImXhf1txMJ-9" value="EOF" style="rounded=0;whiteSpace=wrap;html=1;" vertex="1" parent="1">
          <mxGeometry x="810" y="230" width="70" height="40" as="geometry" />
        </mxCell>
        <mxCell id="aiFn7cLQpYImXhf1txMJ-10" value="check_sum" style="rounded=0;whiteSpace=wrap;html=1;" vertex="1" parent="1">
          <mxGeometry x="880" y="230" width="70" height="40" as="geometry" />
        </mxCell>
        <mxCell id="aiFn7cLQpYImXhf1txMJ-11" value="5字节" style="text;html=1;align=center;verticalAlign=middle;whiteSpace=wrap;rounded=0;" vertex="1" parent="1">
          <mxGeometry x="210" y="280" width="60" height="30" as="geometry" />
        </mxCell>
        <mxCell id="aiFn7cLQpYImXhf1txMJ-12" value="4字节：RDB文件版本" style="text;html=1;align=center;verticalAlign=middle;whiteSpace=wrap;rounded=0;" vertex="1" parent="1">
          <mxGeometry x="277.5" y="280" width="75" height="30" as="geometry" />
        </mxCell>
        <mxCell id="aiFn7cLQpYImXhf1txMJ-13" value="常量&lt;div&gt;1字节&lt;/div&gt;" style="text;html=1;align=center;verticalAlign=middle;whiteSpace=wrap;rounded=0;" vertex="1" parent="1">
          <mxGeometry x="354" y="280" width="60" height="30" as="geometry" />
        </mxCell>
        <mxCell id="aiFn7cLQpYImXhf1txMJ-14" value="数据库号&lt;div&gt;1、2、5字节&lt;/div&gt;" style="text;html=1;align=center;verticalAlign=middle;whiteSpace=wrap;rounded=0;" vertex="1" parent="1">
          <mxGeometry x="425" y="285" width="60" height="30" as="geometry" />
        </mxCell>
        <mxCell id="aiFn7cLQpYImXhf1txMJ-15" value="所有键值对，带有过期时间。&lt;div&gt;长度不定&lt;/div&gt;" style="text;html=1;align=center;verticalAlign=middle;whiteSpace=wrap;rounded=0;" vertex="1" parent="1">
          <mxGeometry x="490" y="280" width="90" height="40" as="geometry" />
        </mxCell>
        <mxCell id="aiFn7cLQpYImXhf1txMJ-16" value="常量1字节&lt;div&gt;结束标志&lt;/div&gt;" style="text;html=1;align=center;verticalAlign=middle;whiteSpace=wrap;rounded=0;" vertex="1" parent="1">
          <mxGeometry x="815" y="285" width="60" height="30" as="geometry" />
        </mxCell>
        <mxCell id="aiFn7cLQpYImXhf1txMJ-17" value="8字节&lt;div&gt;校验和&lt;/div&gt;" style="text;html=1;align=center;verticalAlign=middle;whiteSpace=wrap;rounded=0;" vertex="1" parent="1">
          <mxGeometry x="885" y="285" width="60" height="30" as="geometry" />
        </mxCell>
      </root>
    </mxGraphModel>
  </diagram>
</mxfile>
